<?xml version="1.0" encoding="UTF-8"?>
<svg id="Layer_2" data-name="Layer 2" xmlns="http://www.w3.org/2000/svg" width="82.29" height="164.57" viewBox="0 0 82.29 164.57">
  <g id="Layer_1-2" data-name="Layer 1">
    <path d="M47.6,156.63c.07,.71,.33,1.15,.59,1.59,.75,1.25,.46,2.36-.8,3.13-.09,.05-.18,.1-.27,.15-2.89,1.71-4.27,1.57-6.77-.77-.53-.5-.97-.25-1.37,.02-1.7,1.15-3.56,1.28-5.51,.99-1.03-.15-1.77-.69-2.26-1.58-.84-1.52-.24-2.97,1.47-3.42,.63-.16,1.03-.43,1.27-1.03,.31-.74,1.02-1.15,1.76-1.82-2.13,.15-3.89,.61-5.36,1.89-.59,.52-1.12,1.11-1.72,1.61-1.67,1.38-3.53,2.05-5.7,1.38-.47-.15-.85-.42-.99-.95-.23-.88,.03-1.26,.9-1.02,2.06,.58,3.59-.23,4.93-1.68,1.15-1.25,2.35-2.42,4.24-2.34,.15,0,.33-.1,.46-.2,1.13-.81,2.25-1.65,3.64-2.19-.64-.54-1.19-.88-1.95-.65-.36,.11-.82,.15-1.1-.08-1.08-.93-2.09-.28-3.13,.05-.49,.16-1.07,.75-1.48,.27-.39-.47,.41-.82,.59-1.28,.32-.82,1.19-1.07,1.83-1.63-1.6-.29-2.13-.01-2.72,1.43-.36,.88-.72,1.77-1.03,2.67-.46,1.31-1.72,1.72-2.7,2.39-1.09,.74-2.37,1.21-3.58,1.77-.91,.42-1.84,.25-2.69-.13-.75-.34-1.09-1.02-.8-1.88,.98-2.9,2.58-5.21,5.73-6.04,.43-.11,.83-.28,1.17-.6,1.59-1.53,3.54-2.16,5.71-2.09,1.16,.04,2.32,.12,3.47,.21,1.7,.13,3.32-.4,4.99-.42,.33,0,.62-.21,.75-.48,.6-1.25,1.58-1.93,3.13-1.95-.69-.65-1.4-.83-2.09-.9-1.85-.2-3.68-.13-5.4,.73-.47,.24-.83,.58-1.2,.94-1.63,1.57-3.44,2.34-5.66,1.25-.15-.07-.33-.09-.49-.13-.28-.06-.7,.21-.83-.16-.16-.44,.29-.67,.57-.87,1.37-.99,2.8-1.85,4.6-1.72,1,.07,1.96-.26,2.93-.46,3.3-.66,6.46-.51,9.38,1.35,.68,.43,.85,.13,.83-.5-.01-.34,.02-.71-.1-1.01-.62-1.55-4-3.62-5.6-3.37-.93,.14-1.82,.18-2.74-.01-.71-.15-1.43-.09-2.11,.21-.29,.13-.62,.22-.8-.16-.18-.37,0-.72,.31-.88,1.81-.92,3.63-1.85,5.74-.96,1.02,.43,1.71,1.33,2.62,1.93,.98,.64,1.87,1.44,2.92,2.27,.02-4.15-1.02-7.74-3.46-10.88-.69-.89-1.36-1.8-2.23-2.53-2.36-1.98-3.87-4.5-5.01-7.36-1.42-3.58-2-7.3-2.45-11.07-.18-1.53-.6-3.02-.83-4.54-.53-3.65-.86-7.32-.87-11.02,0-1.78-.11-3.55-.19-5.33-.05-1.07,.18-2.11,.21-3.17,.04-1.81,.03-3.61-.36-5.41-.65-3.06,0-6.14,.09-9.21,.06-2.05,.12-4.1-.04-6.15-.07-.85,0-1.71,0-2.56,0-1.71-.59-2.13-2.14-1.44-1.29,.58-2.54,1.21-4.01,.63-.46-.18-.94-.31-.97-.91-.02-.54,.27-.95,.76-1.11,1.39-.43,2.79-.89,4.22-1.17,.73-.14,.75-.33,.49-.9-.91-2.06-1.83-4.13-2.44-6.31-.49-1.75-.82-3.53-1.08-5.33-.11-.75-.36-1.23-1.06-1.59-1.4-.72-1.36-2.18-1.59-3.47-.03-.16,.03-.38,.23-.41,.29-.03,.33,.22,.3,.42-.11,.71,.1,1.35,.36,1.99,.12,.29,.26,.56,.52,.74,.24,.17,.46,.56,.77,.42,.4-.18,.13-.6,.15-.92,.07-1.31-.99-2.29-1.03-3.6-.03-.94,.68-1.42,1-2.13,.14-.31,.54-.03,.69,.28,.35,.7,.32,1.38-.21,2.1,.73-.53,.97-.13,1,.42,.03,.58-.08,1.16-.33,1.7-.1,.21-.28,.42-.31,.64-.07,.49-.25,1.13,.31,1.38,.49,.22,.72-.37,1.02-.68,.61-.64,.54-1.58,.93-2.3,.4,.12,.32,.39,.29,.61-.14,.95-.49,1.85-1.29,2.37-1.08,.7-1.14,1.57-.95,2.71,.75,4.5,2.35,8.69,4.44,12.96,.64-2.49,1.32-4.74,1.75-7.04,.19-1.02-.41-2.05-.85-3-1.2-2.53-1.18-5.24-1.34-7.93-.01-.25,.08-.51,.39-.5,.33,0,.34,.3,.34,.53,.09,2.48,.84,4.84,1.34,7.25,.14,.67-.04,1.37,.32,2.12,.44-.98,.48-1.95,.61-2.9,.21-1.52,.53-3.03,.57-4.58,.01-.42,.02-.88-.4-1.1-.88-.45-1.4-1.29-2.13-1.9-.99-.82-1.39-2.03-1.82-3.17-.87-2.28-1.51-4.63-.99-7.12,.06-.27-.11-.74,.34-.72,.41,.02,.34,.47,.29,.75-.57,3.07,.42,5.83,1.73,8.5,.57,1.15,1.46,2.13,2.43,3,.48,.42,.79,.3,.88-.34,.29-1.96,.59-3.92,.87-5.89,.05-.32-.03-.6-.29-.83-2.16-1.86-3.23-4.31-3.82-7.03-.27-1.22-.25-2.45-.04-3.67,.04-.24,.03-.64,.42-.58,.33,.05,.18,.39,.16,.61-.26,2.92,.28,5.62,1.97,8.09,.37,.54,.39,1.33,.98,1.82,.5,.41,.85,.44,.97-.29,.22-1.35,.59-2.7,.6-4.05,0-.93-.88-1.64-1.37-2.44-1.29-2.12-2.09-4.37-1.81-6.9,.03-.23,.02-.58,.31-.57,.38,0,.34,.39,.31,.64-.27,2.4,.52,4.5,1.71,6.52,.34,.57,.4,1.3,1.06,1.81,.37-.57,.41-1.23,.57-1.83,.14-.56,.14-1.18,.36-1.7,1.15-2.72-.18-4.7-1.86-6.61-.67-.77-1.03-1.69-1.19-2.69-.06-.37-.16-.8,.33-1.35,.24,2.77,2.01,4.53,3.35,6.56,.47-1.62,1.24-3.13,.48-4.86-.55-1.26-.25-2.62-.09-3.95,.14-1.14-.74-1.85-1.82-1.43-.53,.21-1.04,.29-1.59,.27-.49-.01-.85,.18-1.1,.61-.08,.14-.28,.48-.29,.38-.07-.46-.77-.13-.73-.75,.05-.7,.68-1.17,.68-1.71,0-.56-.73-1.02-.68-1.76,.03-.39,.22-.58,.5-.65,.44-.11,.32,.31,.39,.53,.11,.35,.22,.71,.37,1.16,.33-.46,.26-1.01,.7-1.3,.22,.33-.08,.58-.13,.85-.06,.32,0,.66,.31,.64,1.12-.09,1.85,.83,2.85,1.04,.5,.1,.81,.11,.81-.51,0-.24,.03-.55,.35-.52,.41,.04,.46,.41,.38,.71-.27,.96,.1,1.57,.96,2.01-.07-1.71-.22-3.35-1.06-4.87,.68,.45,.8,1.19,1.19,1.77,.12,.18,.14,.54,.48,.39,.29-.13,.18-.42,.08-.63-.36-.81-.02-1.45,.49-2.09,.27,.25-.14,.74,.3,.86,.38,.11,.78,.47,1.15,.23,.32-.2,.13-.63,.07-.96-.1-.57-.19-1.15-.06-1.73,.05-.24,.23-.49,.5-.39,.36,.13,.15,.38,.02,.58-.51,.78-.37,1.54,.26,2.13,.33,.3-.03,.68,.28,.92,.45-.09,.4-.6,.69-.82,.15-.12,.28-.22,.45-.1,.17,.12,.19,.34,.06,.45-1.2,1.08-1.01,2.53-1.11,3.91-.05,.67-.44,1.17-1.15,1.63,1.84-.23,2.36-1.71,3.27-2.86,.3,.74-.29,1.06-.22,1.69,.44-.96,1.05-1.46,2.03-1.27,.06,.01,.13-.03,.2-.05,.77-.18,.51-1.36,.81-1.34,.95,.08,.78-.47,.76-1.14,1,1.14,1.01,2.69,2.21,3.68-.62,.11-1.4-.79-1.56,.38,0,.02-.15,.06-.18,.04-.71-.64-1.1,.1-1.61,.36-.66,.33-1.37,.38-2.1,.32-.7-.07-1.19,.2-1.37,.94-.09,.36-.29,.7-.37,1.06-.54,2.45-2.44,3.51-4.5,4.35-.46,.19-.66,.43-.75,.84-.34,1.47-.67,2.94-.99,4.41-.05,.23-.19,.5,.03,.68,.23,.19,.46-.04,.64-.17,1.05-.73,2.13-1.32,2.83-2.56,.7-1.24,2.02-2.1,2.71-3.43,.58-1.12,1.26-2.19,1.74-3.37,.11-.29,.21-.8,.64-.6,.37,.17,.18,.62,.06,.93-.63,1.61-1.53,3.05-2.59,4.41-1.62,2.1-3.34,4.07-5.71,5.36-.33,.18-.62,.41-.72,.82-.33,1.4-.68,2.79-1.02,4.19-.12,.5-.12,.74,.58,.55,3.15-.86,5.06-2.95,6.15-5.93,.24-.65,.4-1.38,1.05-1.88,.34,.35,.11,.68,0,.95-.54,1.4-1.22,2.75-1.95,4.07-.99,1.8-2.8,2.34-4.54,2.9-1.12,.36-1.62,.92-1.69,2.08-.06,.98-.32,1.95-.51,2.93-.13,.7,.15,1.04,.82,.85,3.01-.86,6.12-1.5,8.34-4.05,1.07-1.22,2.3-2.3,3.34-3.7,.31,.56,.14,.91-.08,1.18-2.15,2.74-4.71,5.01-8.04,6.12-1.16,.39-2.42,.69-3.68,.85-.67,.09-1,.4-1.07,1.11-.18,2.03-.81,4.02-.72,6.08,.14,.03,.23,.08,.26,.05,1.32-1.27,3-1.75,4.69-2.32,2.98-1.01,5.44-2.83,7.05-5.64,.14-.25,.29-.68,.66-.47,.38,.21,.07,.55-.08,.79-2.2,3.53-5.35,5.69-9.42,6.47-1.61,.31-3.45,2.08-3.6,3.69-.22,2.32-.78,4.57-1.3,6.97,.98-.78,2.04-1.18,3.09-1.64,1.46-.64,2.44-1.83,3.18-3.23,.13-.26,.17-.83,.63-.57,.32,.18,.11,.65-.08,.93-1.13,1.65-2.39,3.12-4.45,3.71-1.37,.39-2.34,1.18-2.89,2.72-.93,2.66-1.2,5.43-.93,8.09,.46,4.51-.45,8.91-.46,13.36,0,.14,0,.27,0,.41,0,.06,.06,.11,.12,.22,2.53-2.75,6.03-4.48,7.84-7.95,1.06-2.05,1.95-4.15,2.38-6.42,.73-3.86,2.1-7.42,4.62-10.5,1.28-1.56,2.46-3.2,3.71-4.78,1.08-1.37,1.51-2.86,1.02-4.59-.47-1.68-.21-3.29,.76-5.01,.47,1.77,1.77,3.06,1.3,4.93,1.65-1.52,2.62-3.33,3.07-5.44,.08-.37-.19-.54-.41-.76-.53-.54-1.04-1.07-.69-1.96,.13-.33,0-.75-.17-1.09-.21-.42-.1-1.09,.2-.98,.47,.19,1.4-.51,1.46,.66,.06,1.12,.25,2.24,.39,3.36,.02,.16,.07,.31,.14,.66,1-1.28,.41-2.68,.82-3.87,.43,1.75,.34,3.43-.85,4.87-.58,.69-.99,1.46-1.49,2.19-2.09,3.04-4.19,6.08-6.47,8.98-.1,.13-.22,.25-.5,.58,1.44-.62,2.68-.91,4.02-.61-1.46,.65-2.72,1.68-4.31,2-.61,.12-1.02,.44-1.42,.9-2.58,3-3.93,6.54-4.67,10.35-1.03,5.3-3.63,9.6-8.09,12.72-.69,.48-1.37,1.01-1.84,1.86,1.68-.32,2.99-1.32,4.49-1.85,1.1-.39,2.21-.33,3.32-.33,.54,0,.57,.36,.27,.78-.86,1.19-1.85,2.27-2.98,3.22-1.04,.88-2.24,.66-3.43,.48-.34-.05-.66-.21-.99-.24-.69-.06-1.15-.03-.97,.99,.32,1.79,.22,3.63,.06,5.43-.23,2.51,.02,4.99,.11,7.48,.11,2.97,.14,5.95,.67,8.89,.71,3.94,.84,7.97,1.71,11.88,.81,3.63,2.11,7.09,4.35,10.1,.85,1.14,1.97,2.09,2.93,3.15,2.37,2.64,4.26,5.56,5.23,9.14,.88-1.27,1.38-2.32,.78-3.97-1.25-3.43-2.3-6.96-2.45-10.66-.03-.81-.83-1.14-1.13-1.78-.12-.26-.62-.42-.35-.74,.24-.29,.64-.1,.94,.08,.2,.12,.38,.26,.7,.48-.11-1.93,.54-3.62,.49-5.4-.02-.67-.11-1.29-.51-1.84-.65-.89-.56-1.77,.23-2.96,.23-.4-.16,1.73,.44,.49,.11-.23,.31,0,.35,.14,.14,.52,.53,1.03,.25,1.57-.4,.78-.02,1.52-.11,2.3,.18-.02,.25-.01,.3-.04,.32-.15,.35-.89,.76-.64,.39,.23,.15,.81,.05,1.24-.02,.07-.04,.13-.08,.19-2.37,3.42-1.52,7.24-1.25,10.94,.1,1.38,.77,2.72,1.22,4.22,.45-.93,.77-1.78,1.48-2.46-.57,1.28-.36,2.63-.52,3.94-.03,.24-.1,.48-.07,.71,.04,.3,.06,.69,.35,.81,.39,.17,.47-.31,.64-.51,1.14-1.37,1.96-2.96,2.91-4.47,.29-.45,.27-.92,.09-1.46-.42-1.25-.44-2.55-.19-3.84,.04-.2,.07-.44,.29-.5,.29-.09,.42,.16,.54,.36,.09,.15,.14,.32,.24,.45,.29,.4,.26,1.18,.83,1.16,.43-.02,.56-.72,.74-1.15,1.23-2.95,2.06-6.02,2.38-9.18,.15-1.5-.08-3.07-1.11-4.38-.61-.77-1.06-1.65-.93-3,.75,1.04,.69,2.23,1.56,2.92,.63-.95,.16-1.97,.28-2.93,.28-2.13,.03-4.24-.64-6.27-.25-.76-.18-1.48-.05-2.22,.04-.27,.07-.58,.42-.62,.28-.03,.4,.22,.54,.41,.2,.29,.43,.68,.2,.95-.72,.85-.27,1.7-.1,2.54,.24,1.14,.42,2.28,.55,3.53,.46-.79,.92-1.58,1.39-2.38,.06,1.08-.48,1.93-1.05,2.71-.6,.82-.58,1.67-.65,2.6-.16,2.37,.36,4.7,.1,7.23,.66-.5,1.17-.92,1.71-1.29,.7-.49,1.05-.18,1.19,.57,.26,1.37-.22,2.6-1.35,3.19-2.08,1.08-2.74,2.92-3.38,4.95-.94,2.98-2.43,5.72-4.36,8.2-.89,1.14-1.49,2.45-2.28,3.65-.28,.43-.18,.84-.07,1.28,.74-.91,1.55-1.1,2.45-.41,.57,.44,1.11,.56,1.79,.43,.53-.1,1.09-.08,1.62,.11,.29,.11,.62,.25,.48,.65-.11,.33-.42,.27-.7,.23-1.35-.2-2.7-.34-4.06-.11-1.1,.19-1.33,.49-1.1,1.6,.39,1.91,.39,1.92,2.27,1.55,1.89-.38,3.79-.77,5.68-1.15,.74-.15,1.44-.19,1.87,.61,.18,.34,.53,.41,.86,.5,1.1,.29,1.87,1.11,2.74,1.77,.4,.3,.56,.82,.49,1.3-.12,.73,.27,.96,.86,1.11,.49,.13,1.01,.28,1.43,.55,1.77,1.17,3.87,1.25,5.82,1.8,1.17,.33,2.12,1.04,3.12,1.83-2.02,.21-3.55,1.65-5.53,1.89,.13,.54,.49,.78,.82,.82,1.05,.12,1.61,.76,2.22,1.57,.68,.9,1.75,1.4,2.95,1.43,.6,.01,1.21,.03,1.65,.66-2.36,.26-4.42-.21-6.22-1.65-2.31-1.85-5.03-2.51-7.88-2.83-.92-.1-1.79-.45-2.73-.42-.26,0-.66-.08-.7,.25-.04,.42,0,.9,.17,1.28,.13,.29,.5,.05,.74-.04,.7-.26,1.36-.34,2.08-.01,.54,.25,1.15,.09,1.72-.05,2.85-.7,5.63,1.49,6.37,3.51,.19,.52,.5,.97,.88,1.37,.46,.48,1.15,.93,.7,1.73-.46,.82-1.16,1.39-2.16,1.29-1.41-.13-2.77-.44-4-1.19-.88-.54-1.65-1.21-2.41-1.9-.43-.39-.87-.78-1.37-1.07-1.04-.6-1.93-.31-2.49,.72-.13,.24-.23,.56-.44,.69-1.54,.97-.86,2.15-.34,3.3,.42,.93,.38,1.77-.19,2.62-.72,1.1-1.67,1.49-2.91,1.06-2.24-.77-4.17-2.02-5.73-3.82-.51-.59-1.08-1.13-1.92-1.51Zm2.08-15.62c-.04,1.51,.15,1.82,.92,1.6,1-.28,2.06-.3,2.96-1,.68-.53,1.56-.38,2.38-.17,1.01,.26,1.93,.73,2.75,1.34,1.05,.78,2.07,.71,3.17,.17,.73-.36,.7-.78,.14-1.23-.26-.21-.58-.38-.9-.47-1.74-.5-3.45-1.12-5.18-1.63-1.57-.46-3.21-.61-4.86-.17-.94,.25-1.64,.58-1.38,1.56ZM43.5,11.27c-.59,.33-1.22,.44-1.46,.92-.55,1.12-1.44,1.89-2.35,2.65-.3,.25-.42,.62-.52,.99-.07,.25-.32,.54-.09,.76,.22,.21,.52,0,.75-.12,2.03-1.07,3.37-2.65,3.67-5.2Zm3.11,127.53c.04,1.46,.06,1.44,1.36,1.05,.84-.25,1.09-.66,.86-1.49-.15-.52-.18-1.07-.26-1.61-.04-.22-.1-.39-.4-.29-.62,.2-1.58,1.62-1.56,2.34Zm-5.24,10.52c.91,0,1.61,0,2.31,0,.25,0,.35-.12,.41-.35,.2-.67-.26-2.09-.83-2.48-.33-.22-.6-.21-.62,.26-.04,.96-.49,1.73-1.27,2.56Zm7.63-7.95c.04-1.13-.04-1.18-.98-.71-.24,.12-.48,.26-.72,.38-.61,.29-.92,.81-.67,1.41,.27,.62,.73,0,1.1-.03,.7-.04,1.43-.11,1.26-1.05Zm-4.31,2.81c-.02-.31,.1-.62-.18-.79-.28-.18-.51,.08-.73,.2-.33,.19-.61,.42-.81,.75-.18,.3-.33,.62-.07,.94,.29,.36,.68,.56,1.15,.52,.47-.05,.43-.45,.5-.77,.06-.3,.1-.6,.14-.86Z"/>
  </g>
</svg>