<?xml version="1.0" encoding="UTF-8"?>
<svg id="Layer_1" data-name="Layer 1" xmlns="http://www.w3.org/2000/svg" width="77.37" height="61.47" viewBox="0 0 77.37 61.47">
  <path d="M13.48,29.42c-2.52,1.27-3.47,3.65-4.56,5.94,.44-.81,.38-1.72,.66-2.52,.64-1.81,2.23-2.78,3.69-3.83,.43-.31,.68-.64,.85-1.09,.13-.35,0-.72-.25-.94-.26-.22-.49,.12-.7,.25-1.75,1.05-3.37,2.33-5.42,2.82-1.36,.32-2.78,.25-4.21,.71,.02-.76,.42-1.09,.97-1.22,.66-.15,1.34-.24,2.02-.33,2.29-.29,4.11-1.42,5.85-2.9,1.58-1.33,2.27-3.18,3.46-4.72,1.01-1.32,1.76-2.72,2.42-4.22,.35-.8,1.07-.87,1.88-.29,1.2,.86,1.18,.85,2.08-.34,.41-.54,.62-1.09,.66-1.78,.04-.78,.3-1.54,1.32-1.49,.75,.03,.38-.9,.95-1.01,0,.11,.01,.2,0,.29-.04,.28-.39,.65,.02,.79,.36,.12,.44-.35,.52-.62,.1-.33,.2-.92,.41-.86,.87,.23,1.5-.85,2.17-.48,.71,.39,.82-.05,1.11-.39,.13-.16,.22-.34,.35-.51,.2-.26,.2-.22,.76-.2,.16,0,.34-.2,.51-.31,.35-.23,.63-.59,1.2-.69-.53,.89-1.54,1.15-1.89,2.1,.87-.78,2.07-1.02,2.86-1.86,.69-.73,1.45-1.28,2.4-1.58,1.59-.51,2.94-1.45,4.25-2.43,1.88-1.42,3.85-2.73,5.77-4.07,2.22-1.55,4.88-1.89,7.58-1.47,2.92,.45,2.91,.46,2.96,3.35,0,.43-.21,1.03,.22,1.24,.52,.25,.92-.32,1.3-.62,3.84-2.98,8.13-3.4,12.7-2.29,1.37,.33,2.33,1.27,2.47,2.58,.14,1.31-.29,2.62-1.45,3.54-1.01,.8-2.21,1.22-3.38,1.69-4.07,1.64-8.19,3.08-12.58,3.59-.64,.08-.9,.25-.38,.87,.55,.67,.9,1.45,.9,2.35,0,.32,.11,.6,.31,.84,1.89,2.24,1.4,4.78,.83,7.28-.14,.62-.15,.99,.29,1.44,1.09,1.11,2,2.32,2.23,3.94,.1,.73,.55,1.21,1.38,1.27,.9,.06,1.73,.45,2.51,.85,2.1,1.07,4.36,1.38,6.65,1.29,.9-.04,1.64,.34,2.49,.42,1.36,.13,2.82-.27,4.08,.6,.25,.17,.6,.22,.66,.58,.04,.26,.09,.61-.37,.52-2.62-.5-5.28-.53-7.93-.62-2.17-.07-4.13-.88-6.15-1.51-1.25-.39-2.51-.69-3.82-.6-.45,.03-.82-.09-1.11-.39-.59-.61-1.16-1.22-1.73-1.85-.27-.29-.38-.64-.22-1.04,.33-.8-.2-1.19-.73-1.6-.6-.46-.83,.12-1.19,.37-.81,.57-1.75,.75-2.69,.91-.38,.06-.77-.1-.99-.44-.79-1.2-2.09-1.57-3.28-2.13-.53-.25-.69-.15-.7,.47-.03,1.31,.41,2.5,.83,3.68,.7,1.96,1.58,3.85,2.55,5.7,.03,.06,.04,.15,.08,.18,1.93,1.25,2.89,3.4,4.56,4.9,.1,.09,.26,.15,.3,.26,1.01,2.34,3.23,2.48,5.29,2.9,.44,.09,.87,.17,1.24,.44,.23,.17,.26,.39,.09,.62-.12,.17-.28,.39-.49,.2-.85-.78-1.99-.8-2.98-.89-1.91-.17-3.01-1.34-4.17-2.62-1.26-1.39-2.63-2.67-3.97-3.99-.29-.28-.63-.51-1.23-.45,.74,.59-.49,1.03,.07,1.6-.34,.09-.44-.17-.47-.32-.48-2.43-2.06-4.46-2.51-6.9-.28-1.54-.47-3.11-.95-4.61-.09-.28-.08-.69-.42-.76-.35-.07-.49,.32-.68,.54-1,1.13-2.06,2.1-3.76,1.76-.41-.08-.66,.26-.9,.57-.57,.74-1.03,1.94-1.94,1.92-1.05-.02-2.06-.74-2.99-1.37-.55-.37-.86-1.06-1.64-1.26,.43,.98,.81,1.93,1.26,2.83,.63,1.23,.57,2.58,.75,3.89,.07,.54-.21,.85-.74,1.07-1.49,.6-2.89,.78-4.2-.42-.64-.58-.82,0-.93,.48-.28,1.17-.29,2.37-.25,3.57,.05,1.4,.06,2.8-.17,4.19-.08,.5-.13,1.07,.04,1.53,.54,1.54-.1,2.93-.45,4.35-.43,1.71-.92,3.41-1.36,5.13-.2,.76-.57,1.46-.86,2.18-.46,1.1-1.06,2.13-.72,3.52-.67-.26-.86-1.67-1.63-.43-.31-.39-.13-.73,.11-.84,1.33-.59,1.2-1.94,1.42-2.97,.43-2.06,.76-4.13,1.39-6.14,.19-.62,.25-1.16,0-1.78-.57-1.4-.16-2.85-.03-4.26,.28-2.92,.68-5.83,1.06-8.74,.26-2.01,.43-2.14,2.54-2.46,1.1-.16,1.19-.35,.65-1.28-.12-.21-.24-.41-.37-.62-.89-1.46-1.96-1.76-3.46-.96-.11,.06-.22,.18-.26,.3-.43,1.21-1.23,2.09-2.23,2.87-.41,.32-.72,.84-.92,1.33-.35,.84-.92,1.26-1.82,1.19-.85-.06-1.53-.61-1.63-1.34-.16-1.19-1.36-1.57-1.74-2.59-.14-.38-.63-.72-.65-1.31-.62,.72-1.25,1.35-.8,2.36,.15,.33-.06,.67-.19,.98-.26,.65-.68,1.22-.83,1.93-.2-2.05,1.12-3.96,.55-6.03-.98,1.65-1.6,3.4-1.98,5.22-.39,1.8-.72,3.61-.7,5.48,.02,1.4-.39,1.84-1.68,2.27-.19,.07-.39,.15-.55,.27-2.26,1.61-4.96,2.44-7.22,4.04-.84,.6-1.93,.67-2.77,1.31-.21,.16-.5-.56-.96-.43-.03-.49,.38-.71,.7-.75,1.38-.17,2.48-.93,3.64-1.58,2.03-1.13,3.95-2.4,5.81-3.78,.44-.33,.61-.8,.65-1.33,.2-2.91,.86-5.73,1.67-8.52,.33-1.11,.65-2.23,1.01-3.47Z"/>
</svg>