<svg xmlns="http://www.w3.org/2000/svg" xmlns:xlink="http://www.w3.org/1999/xlink" width="923" height="1172.471" viewBox="0 0 923 1172.471">
  <defs>
    <clipPath id="clip-path">
      <rect id="Rectangle_4" data-name="Rectangle 4" width="923" height="1172.471" transform="translate(0 -0.001)" fill="none"/>
    </clipPath>
    <clipPath id="clip-path-2">
      <rect id="Rectangle_5" data-name="Rectangle 5" width="923" height="928" transform="translate(0 0.005)" fill="none"/>
    </clipPath>
  </defs>
  <g id="Group_11" data-name="Group 11" transform="translate(0 0.001)">
    <g id="Group_8" data-name="Group 8">
      <g id="Group_7" data-name="Group 7" clip-path="url(#clip-path)">
        <path id="Path_25" data-name="Path 25" d="M196.91,1168.005H139.57l-43.945-68.15v68.15H49.564V990.815H121.24q14.8,0,25.85,4.347a48.677,48.677,0,0,1,29.022,29.258,60.637,60.637,0,0,1,3.643,21.151q0,20.212-9.753,32.782t-28.787,17.037ZM95.625,1070.01h8.695q13.626,0,20.914-5.64t7.286-16.214q0-10.577-7.286-16.216t-20.914-5.64H95.625Z" fill="#2a2928"/>
        <path id="Path_26" data-name="Path 26" d="M322.613,1117.354v-4.274a80.748,80.748,0,0,0-4.274-27.108,55.3,55.3,0,0,0-12.374-20.36,53.32,53.32,0,0,0-19.8-12.71,74.548,74.548,0,0,0-26.32-4.386c-.51,0-1.006.02-1.511.028-.5-.008-.986-.028-1.489-.028a76.166,76.166,0,0,0-26.658,4.386,56.78,56.78,0,0,0-20.135,12.486,54.628,54.628,0,0,0-12.822,19.684,71.227,71.227,0,0,0-4.5,25.983,64.476,64.476,0,0,0,4.724,25.2,55.611,55.611,0,0,0,13.385,19.347,59.733,59.733,0,0,0,20.81,12.486,78.318,78.318,0,0,0,26.771,4.386c.6,0,1.183-.013,1.772-.023.411.005.814.023,1.228.023q47.689,0,59.615-39.593H278.67a21.85,21.85,0,0,1-18.348,10.752q-23.4-.707-23.421-26.275h85.712Zm-84.587-23.621q1.572-8.994,7.536-13.948,5.454-4.526,13.844-4.9a22.969,22.969,0,0,1,13.864,5.122,24.519,24.519,0,0,1,8.324,13.723Z" fill="#2a2928"/>
        <path id="Path_27" data-name="Path 27" d="M407.465,1029.825H425.55V990.814H401.691a48.522,48.522,0,0,0-48.521,48.521v14.983H337.9v36.127H353.17v77.56H395.7v-77.56H425.55v-36.127H395.7v-12.734a11.76,11.76,0,0,1,11.76-11.759" fill="#2a2928"/>
        <path id="Path_28" data-name="Path 28" d="M546.338,1029.825H491.583v24.609h51.7v36.011h-51.7V1129h54.755v39.01H445.524V990.814H546.338Z" fill="#2a2928"/>
        <path id="Path_29" data-name="Path 29" d="M670.122,1106.549l47.088-51.95H663.038l-18.885,22.242L625.689,1054.6H571.517l45.982,51.95-56.593,61.456H615.74l28.177-32.446,27.963,32.446h55.056Z" fill="#2a2928"/>
        <path id="Path_30" data-name="Path 30" d="M884.5,1168.005H741.853l43.946-45.59q17.388-18.093,27.26-30.668a168.746,168.746,0,0,0,14.687-21.267q4.814-8.691,5.992-14.1a44.424,44.424,0,0,0,1.175-9.165,23.774,23.774,0,0,0-1.292-7.755,19.833,19.833,0,0,0-3.878-6.7,18.809,18.809,0,0,0-14.8-6.463q-9.4,0-14.687,6.11t-5.287,15.275a57.588,57.588,0,0,0,.7,7.52H745.379a75.585,75.585,0,0,1,5.052-28.2,63.938,63.938,0,0,1,14.217-21.855,62.791,62.791,0,0,1,21.738-14.1A74.932,74.932,0,0,1,814,986.115a77.624,77.624,0,0,1,27.378,4.7,65.456,65.456,0,0,1,21.737,13.16,60.416,60.416,0,0,1,14.335,20.093,61.523,61.523,0,0,1,5.17,25.262,58.878,58.878,0,0,1-6.227,26.907q-6.23,12.337-19.858,25.263l-29.375,27.495H884.5Z" fill="#2a2928"/>
      </g>
    </g>
    <g id="Group_10" data-name="Group 10">
      <g id="Group_9" data-name="Group 9" clip-path="url(#clip-path-2)">
        <path id="Path_31" data-name="Path 31" d="M435.5.735c-102.6,5.4-201.6,46.1-280,115.2-82,72.2-136.8,174.1-151.4,281.4-3.2,23.4-4.1,36.9-4.1,64.9,0,42.9,3.8,74,14.2,114.8,27.4,108.3,96.4,205.5,190.4,268.3,93.4,62.5,204.4,88.5,316.4,74.2,165.2-21,308.7-133,369.8-288.6,15.7-39.8,25.1-78.5,29.9-122.3,2.4-22.6,2.4-71.9,0-94-9.6-86.3-39.6-162.5-90.7-230.5-75.4-100.3-190.7-166.7-314-180.9a460.208,460.208,0,0,0-80.5-2.5m45.5,74.9c53.9,3.2,100.9,15.3,147.5,37.9,24.9,12.1,51.8,28.7,69,42.5l3,2.4-4.5.6c-27.3,3.4-40.2,5.3-55.5,8.2a638.588,638.588,0,0,0-155.9,50.5c-10.5,5-19.8,9.3-20.6,9.5-.8.3-8.5-2.8-17-6.9a642.321,642.321,0,0,0-156.4-52.2c-16.8-3.3-46-7.7-60.3-9.1-4-.3-7.3-.9-7.3-1.3.1-.7.2-.7,15.2-11.5,57.7-41.3,129.3-66.4,200.7-70.5,20-1.2,24-1.2,42.1-.1m-292,187q110.4,5.7,207.9,52.1l14.4,6.9H515l7-3.5c44.3-22.3,101.6-40.6,153.2-49,33.8-5.4,73.7-8.2,101.5-7l16.1.7,7.6,13.7c39.9,72.1,55.4,157.6,43.5,239.6a390.576,390.576,0,0,1-20.1,79.5l-4.3,11.5-13.5-.5c-29-1.1-83.2-.3-101.5,1.4-80.8,7.6-153.7,27.6-224.7,61.9l-16.8,8-17.7-8.5c-69.7-33.7-143.3-53.9-223.8-61.4-20.2-1.9-77.4-2.5-103.1-1.1l-15.2.9-2.9-7.9c-11.3-29.3-19.3-61.9-23.5-95.3-1.8-14.2-1.8-71.9,0-85.5,5.5-41.8,14.7-75.9,30-111.4,6.1-14,19.4-40,22.4-43.8,1.6-2.1,32.3-2.7,59.8-1.3m24.5,451.6a546.912,546.912,0,0,1,186.6,51.8l11.6,5.6h103l15.4-7.4c52.1-25,112.5-42.2,172.4-49,15.8-1.8,51.4-4,52.2-3.2s-11.6,14.3-26.1,28.3a384.944,384.944,0,0,1-309.1,105.7c-97-10.5-185.9-57.4-250.9-132.3l-2.1-2.3,15.5.6c8.5.4,22.7,1.4,31.5,2.2" fill="#2a2928"/>
        <path id="Path_32" data-name="Path 32" d="M135.8,306.335c-1.6.2-2.8.8-2.8,1.2,0,.5,3.6,23.8,8,51.9s8,51.3,8,51.5,10.5.7,23.3,1c44.3,1.3,79.8,5.9,120.2,15.7,36.3,8.8,78.8,24.1,109.7,39.6l8.8,4.4H514.7l14.4-6.9a570.851,570.851,0,0,1,96.2-35.1c40.5-10.5,80.5-16.1,127.6-17.8l20.5-.7,8.1-52c5.8-36.7,7.9-52.2,7.1-52.7-1.6-1.1-41.2-.9-61.6.2-88.1,5-169.2,25.8-248.3,63.8l-15.7,7.5-15.8-7.6c-77.9-37.6-158.8-58.4-247.7-63.7-16.4-.9-58.1-1.1-63.7-.3" fill="#2a2928"/>
        <path id="Path_33" data-name="Path 33" d="M138.6,456.335c-4.8.3-5.7.7-5.4,2.1.3.9,4,24.5,8.4,52.4l7.9,50.8h17c79.5.1,166.6,20.4,235.2,54.9l10.3,5.1H513.7l15.4-7.4a538.3,538.3,0,0,1,156.2-47c24.8-3.6,37.2-4.6,63.9-5.3l23.6-.6.5-2.6c2.4-12.4,15.8-101.3,15.3-101.8-1.2-1.3-31.1-1.5-53.6-.4-48.3,2.4-85.5,7.7-129.9,18.7-44.2,10.9-92.9,28.7-132.1,48.4l-10,5-11.7-5.9c-72-36-153.4-58.1-239.3-65.1-13.8-1.1-64.1-2-73.4-1.3" fill="#3884b5"/>
      </g>
    </g>
  </g>
</svg>
