<svg xmlns="http://www.w3.org/2000/svg" xmlns:xlink="http://www.w3.org/1999/xlink" width="3666"
  height="1080" viewBox="0 0 3666 1080">
  <defs>
    <clipPath id="clip-path">
      <rect id="Rectangle_6" data-name="Rectangle 6" width="1284" height="313"
        transform="translate(0 -0.393)" fill="#383635" />
    </clipPath>
    <clipPath id="clip-Re-design_SVG_1">
      <rect width="3666" height="1080" />
    </clipPath>
  </defs>
  <g id="Re-design_SVG_1" data-name="Re-design (SVG) – 1" clip-path="url(#clip-Re-design_SVG_1)">
    <rect width="3666" height="1080" fill="#fff" />
    <g id="Group_33" data-name="Group 33" transform="translate(-90 15)">
      <circle id="black_ellipse" data-name="black ellipse" cx="450" cy="450" r="450"
        transform="translate(90 75)" fill="#383635" />
      <circle id="white_ellipse" data-name="white ellipse" cx="375" cy="375" r="375"
        transform="translate(165 149)" fill="#fff" />
    </g>
    <path id="Union_20" data-name="Union 20"
      d="M-6530.017,597.169c-.587,0-22.389.047-37.032.047-7.422,0-13.007-.01-13.057-.047-.152-.106-116.6-62.619-251.194-56.669L-6900,438.48s207.745-22.915,369.984,67.348c162.238-90.263,369.984-67.348,369.984-67.348l-68.7,102.02c-134.594-5.95-251.041,56.563-251.193,56.669-.05.036-5.635.047-13.057.047C-6507.626,597.216-6529.428,597.17-6530.017,597.169Zm.014-435v0s-22.2.047-37.045.047c-7.422,0-13.007-.012-13.059-.047-.151-.107-102.468-67.842-292.092-57.431l22.136-103.67s163.593-15.28,320.047,69.762c156.455-85.042,320.046-69.762,320.046-69.762l22.136,103.67c-189.624-10.411-291.941,57.324-292.092,57.429-.05.036-5.635.048-13.057.048C-6507.533,162.216-6529.151,162.169-6530,162.168Z"
      transform="translate(6980.027 242.658)" fill="#383635" />
    <g id="Group_17" data-name="Group 17" transform="translate(1080.469 315.517)">
      <g id="Mask_Group_15" data-name="Mask Group 15" transform="translate(-0.469 -0.124)"
        clip-path="url(#clip-path)">
        <path id="Path_34" data-name="Path 34"
          d="M278.758,311.97H170.278L87.141,191.981V311.97H0V0H135.6q28.009,0,48.9,7.654t34.458,20.9a87.491,87.491,0,0,1,20.449,30.616,100.142,100.142,0,0,1,6.89,37.24q0,35.587-18.449,57.718t-54.463,30ZM87.141,139.435h16.45q25.778,0,39.564-9.93t13.784-28.547q0-18.622-13.784-28.551t-39.564-9.93H87.141Z"
          transform="translate(0.595 0.188)" fill="#383635" />
        <path id="Path_35" data-name="Path 35"
          d="M388.883,173.9v-7.525q0-26.531-8.086-47.728A96.437,96.437,0,0,0,357.388,82.8q-15.321-14.647-37.453-22.378T270.141,52.7c-.965,0-1.9.035-2.859.049-.94-.014-1.865-.049-2.817-.049q-28.091,0-50.433,7.722T175.94,82.406a95.842,95.842,0,0,0-24.257,34.657q-8.522,20.4-8.513,45.747,0,24.564,8.937,44.361a98.1,98.1,0,0,0,25.322,34.063q16.38,14.261,39.37,21.983t50.647,7.722c1.131,0,2.238-.023,3.352-.041.777.009,1.54.041,2.323.041q90.222,0,112.783-69.709H305.749q-11.953,17.792-34.712,18.93-44.269-1.244-44.309-46.261H388.883ZM228.857,132.311q2.974-15.835,14.257-24.558,10.318-7.968,26.191-8.622c10.171.454,18.928,3.44,26.229,9.018a42.8,42.8,0,0,1,15.748,24.161Z"
          transform="translate(128.282 40.274)" fill="#383635" />
        <path id="Path_36" data-name="Path 36"
          d="M419.946,68.684H454.16V0H409.022c-50.7,0-91.795,38.248-91.795,85.429v26.38h-28.9v63.607h28.9V311.97H397.7V175.414H454.16V111.807H397.7V89.387c0-11.434,9.961-20.7,22.248-20.7"
          transform="translate(257.745 0.187)" fill="#383635" />
        <path id="Path_37" data-name="Path 37"
          d="M586.685,68.684H483.1v43.328h97.809v63.4H483.1v67.873H586.685v68.683H395.959V0H586.685Z"
          transform="translate(353.735 0.187)" fill="#383635" />
        <path id="Path_38" data-name="Path 38"
          d="M717.963,155.25l89.084-91.466H704.561l-35.728,39.16L633.9,63.784H531.416l86.991,91.466-107.066,108.2H615.08l53.307-57.126,52.9,57.126H825.447Z"
          transform="translate(456.639 48.705)" fill="#383635" />
        <path id="Path_39" data-name="Path 39"
          d="M962.153,311.97H692.289l83.14-78.194q32.9-31.034,51.572-52.6T854.786,144.7q9.107-14.906,11.336-24.183a69.473,69.473,0,0,0,2.223-15.719,37.34,37.34,0,0,0-2.445-13.3,33.416,33.416,0,0,0-7.336-11.486,36.908,36.908,0,0,0-11.781-8.062,40.184,40.184,0,0,0-16.228-3.023q-17.785,0-27.786,10.479t-10,26.2a89.807,89.807,0,0,0,1.332,12.9H698.96q0-26.6,9.557-48.367a109.284,109.284,0,0,1,26.9-37.486A120.667,120.667,0,0,1,776.539,8.463Q800.32,0,828.777,0a160.506,160.506,0,0,1,51.8,8.058Q904.35,16.127,921.7,30.632a104.489,104.489,0,0,1,27.12,34.461,97.159,97.159,0,0,1,9.781,43.33,93.33,93.33,0,0,1-11.781,46.15q-11.785,21.159-37.568,43.33l-55.573,47.159H962.153Z"
          transform="translate(618.018 0.188)" fill="#383635" />
      </g>
    </g>
    <path id="Union_4" data-name="Union 4"
      d="M-6579.966,162.168c-1.265,0-49.927.1-50.076,0s-118.237-64.737-254.834-58.659L-6900,1.067s163.59-15.27,320.035,69.754C-6423.52-14.2-6259.93,1.067-6259.93,1.067l-15.125,102.442c-136.6-6.078-254.682,58.553-254.834,58.659-.05.035-5.634.047-13.056.047C-6557.5,162.215-6579.128,162.169-6579.966,162.168Z"
      transform="translate(7029.93 388.661)" fill="#383635" />
    <path id="Union_7" data-name="Union 7"
      d="M-6579.966,162.168c-1.265,0-49.927.1-50.076,0s-118.237-64.737-254.834-58.659L-6900,1.067s163.59-15.27,320.035,69.754C-6423.52-14.2-6259.93,1.067-6259.93,1.067l-15.125,102.442c-136.6-6.078-254.682,58.553-254.834,58.659-.05.035-5.634.047-13.056.047C-6557.5,162.215-6579.128,162.169-6579.966,162.168Z"
      transform="translate(7029.965 533.66)" fill="#529dcd" />
    <text id="Reference_Expression_Dataset" data-name="Reference Expression Dataset"
      transform="translate(1067 837)" fill="#3e4652" font-size="163"
      font-family="Futura-Bold, Futura" font-weight="700">
      <tspan x="0" y="0">Reference Expression Dataset</tspan>
    </text>
    <text id="_2" data-name="2" transform="translate(2365 627)" fill="#488ec4" font-size="384"
      font-family="Helvetica">
      <tspan x="0" y="0">2</tspan>
    </text>
  </g>
</svg>