<svg xmlns="http://www.w3.org/2000/svg" xmlns:xlink="http://www.w3.org/1999/xlink" width="900.001" height="1195" viewBox="0 0 900.001 1195">
  <defs>
    <clipPath id="clip-path">
      <rect id="Rectangle_6" data-name="Rectangle 6" width="900" height="220" transform="translate(0 0)" fill="#383635"/>
    </clipPath>
  </defs>
  <path id="Union_20" data-name="Union 20" d="M-6496.01,897.676a450.959,450.959,0,0,1-44.681-6.819c-14.5-2.966-29.007-6.7-43.125-11.088-13.96-4.343-27.871-9.434-41.344-15.133a449.879,449.879,0,0,1-76.439-41.489,453.138,453.138,0,0,1-66.6-54.949,453.111,453.111,0,0,1-54.949-66.6,449.743,449.743,0,0,1-41.489-76.439c-5.7-13.474-10.792-27.385-15.133-41.344-4.392-14.122-8.122-28.631-11.088-43.126a451.4,451.4,0,0,1-6.819-44.681A457.467,457.467,0,0,1-6900,450a457.468,457.468,0,0,1,2.324-46.011,451.4,451.4,0,0,1,6.819-44.681c2.966-14.494,6.7-29,11.088-43.126,4.341-13.959,9.434-27.868,15.133-41.344a449.876,449.876,0,0,1,41.489-76.439,453.328,453.328,0,0,1,54.949-66.6,453.16,453.16,0,0,1,66.6-54.948,450.008,450.008,0,0,1,76.439-41.491c13.474-5.7,27.383-10.79,41.344-15.131,14.119-4.392,28.628-8.122,43.125-11.09a451.477,451.477,0,0,1,44.681-6.818A456.886,456.886,0,0,1-6450,0a456.847,456.847,0,0,1,46.01,2.324,451.3,451.3,0,0,1,44.681,6.818c14.5,2.968,29.005,6.7,43.125,11.09,13.959,4.341,27.87,9.432,41.344,15.131A449.971,449.971,0,0,1-6198.4,76.853a453.215,453.215,0,0,1,66.6,54.948,453.449,453.449,0,0,1,54.949,66.6,450.084,450.084,0,0,1,41.489,76.439c5.7,13.476,10.79,27.386,15.131,41.344,4.392,14.122,8.123,28.63,11.089,43.126a451.4,451.4,0,0,1,6.819,44.681A457.3,457.3,0,0,1-6000,450a457.3,457.3,0,0,1-2.322,46.01,451.4,451.4,0,0,1-6.819,44.681c-2.966,14.5-6.7,29.005-11.089,43.126-4.341,13.959-9.433,27.868-15.131,41.344a450.016,450.016,0,0,1-41.489,76.439,453.265,453.265,0,0,1-54.949,66.6,453.116,453.116,0,0,1-66.6,54.949,449.842,449.842,0,0,1-76.439,41.489c-13.474,5.7-27.385,10.792-41.344,15.133-14.12,4.392-28.628,8.122-43.125,11.088a450.783,450.783,0,0,1-44.681,6.819A456.85,456.85,0,0,1-6450,900,456.889,456.889,0,0,1-6496.01,897.676Zm-219.155-182.511a377.591,377.591,0,0,0,55.5,45.791,374.925,374.925,0,0,0,63.7,34.575,373.046,373.046,0,0,0,70.391,21.85,375.587,375.587,0,0,0,37.235,5.683A380.95,380.95,0,0,0-6450,825a381,381,0,0,0,38.343-1.936,375.643,375.643,0,0,0,37.234-5.683,373.027,373.027,0,0,0,70.389-21.85,374.965,374.965,0,0,0,63.7-34.575,377.673,377.673,0,0,0,55.5-45.791q10.761-10.761,20.652-22.4c-127.926-.837-235.568,56.958-235.715,57.059-.05.036-5.635.047-13.057.047-14.645,0-36.446-.047-37.033-.047s-22.389.047-37.032.047c-7.422,0-13.006-.01-13.057-.047-.146-.1-107.813-57.9-235.741-57.059Q-6725.942,704.385-6715.166,715.165Zm265.178-56.678c130.6-72.661,290.7-71.981,348.168-68.953a373.307,373.307,0,0,0,19.2-63.96,376.269,376.269,0,0,0,5.682-37.234A381,381,0,0,0-6075,450a381,381,0,0,0-1.936-38.341,376.268,376.268,0,0,0-5.682-37.234,373.086,373.086,0,0,0-21.852-70.391,374.671,374.671,0,0,0-24.218-47.484c-176.242-4.6-271.064,58.174-271.209,58.276-.05.036-5.635.048-13.057.048-14.551,0-36.171-.047-37.021-.048v0s-22.2.047-37.046.047c-7.422,0-13.006-.012-13.058-.047-.145-.1-94.994-62.875-271.235-58.277a374.539,374.539,0,0,0-24.217,47.484,373.133,373.133,0,0,0-21.851,70.391,375.7,375.7,0,0,0-5.683,37.234A380.86,380.86,0,0,0-6825,450a380.861,380.861,0,0,0,1.936,38.341,375.7,375.7,0,0,0,5.683,37.234,373.3,373.3,0,0,0,19.2,63.961c10.123-.534,23.435-1,39.214-1C-6685.214,588.54-6557.6,598.618-6449.987,658.487Zm0-435c84.1-45.713,170.27-62.439,231.977-68.132q-10.871-8.572-22.322-16.311a375.077,375.077,0,0,0-63.7-34.575,372.986,372.986,0,0,0-70.389-21.85,375.659,375.659,0,0,0-37.234-5.683A381,381,0,0,0-6450,75a380.955,380.955,0,0,0-38.341,1.936,375.6,375.6,0,0,0-37.235,5.683,373,373,0,0,0-70.391,21.85,375,375,0,0,0-63.7,34.575q-11.436,7.726-22.319,16.308C-6620.276,161.044-6534.1,177.769-6449.987,223.488Z" transform="translate(6900)" fill="#383635"/>
  <g id="Group_17" data-name="Group 17" transform="translate(0.001 975)">
    <g id="Group_15" data-name="Group 15" transform="translate(0 0)" clip-path="url(#clip-path)">
      <path id="Path_34" data-name="Path 34" d="M158.839,219.815H97.026L49.654,135.271v84.544H0V0H77.266q15.96,0,27.866,5.393a54.029,54.029,0,0,1,19.635,14.724,64.212,64.212,0,0,1,11.652,21.572,85.483,85.483,0,0,1,3.926,26.239q0,25.075-10.513,40.668T98.8,129.732ZM49.654,98.246h9.373q14.689,0,22.544-7t7.854-20.114q0-13.121-7.854-20.117t-22.544-7H49.654Z" transform="translate(0 0)" fill="#383635"/>
      <path id="Path_35" data-name="Path 35" d="M283.18,138.1v-5.3a114.027,114.027,0,0,0-4.607-33.629,71.087,71.087,0,0,0-13.339-25.258,57.3,57.3,0,0,0-21.341-15.768A70.948,70.948,0,0,0,215.519,52.7c-.55,0-1.084.025-1.629.035-.536-.01-1.063-.035-1.605-.035a72.462,72.462,0,0,0-28.737,5.441,60.631,60.631,0,0,0-21.706,15.49A69.468,69.468,0,0,0,148.02,98.05a100.368,100.368,0,0,0-4.851,32.234,90.662,90.662,0,0,0,5.092,31.257,70.029,70.029,0,0,0,14.429,24,63.421,63.421,0,0,0,22.433,15.49,74.489,74.489,0,0,0,28.859,5.441c.645,0,1.275-.016,1.91-.029.443.006.877.029,1.324.029q51.409,0,64.265-49.118H235.809Q229,169.892,216.03,170.694q-25.225-.876-25.248-32.6h92.4Zm-91.185-29.3q1.695-11.158,8.124-17.3a22.56,22.56,0,0,1,14.924-6.075,22.931,22.931,0,0,1,14.945,6.354q6.788,6.424,8.973,17.024Z" transform="translate(11.167 12.678)" fill="#383635"/>
      <path id="Path_36" data-name="Path 36" d="M363.326,48.395h19.5V0H357.1C328.215,0,304.8,26.949,304.8,60.192V78.78H288.331V123.6H304.8v96.218h45.853V123.6h32.173V78.78H350.649v-15.8c0-8.056,5.676-14.588,12.677-14.588" transform="translate(22.49 0)" fill="#383635"/>
      <path id="Path_37" data-name="Path 37" d="M504.637,48.395H445.611V78.924h55.733V123.6H445.611v47.824h59.026v48.394H395.959V0H504.637Z" transform="translate(30.885 0)" fill="#383635"/>
      <path id="Path_38" data-name="Path 38" d="M629.077,128.231l50.761-64.447h-58.4L601.082,91.377l-19.9-27.593h-58.4l49.569,64.447-61.007,76.24h59.111l30.375-40.251,30.144,40.251h59.35Z" transform="translate(39.885 15.344)" fill="#383635"/>
      <path id="Path_39" data-name="Path 39" d="M846.06,219.815H692.289l47.374-55.1q18.744-21.867,29.386-37.063a206.421,206.421,0,0,0,15.833-25.7q5.189-10.5,6.459-17.039a59.883,59.883,0,0,0,1.267-11.076,31.9,31.9,0,0,0-1.393-9.372,24.8,24.8,0,0,0-4.18-8.093,21.521,21.521,0,0,0-6.713-5.681,19.127,19.127,0,0,0-9.247-2.13q-10.134,0-15.833,7.384t-5.7,18.46a77.811,77.811,0,0,0,.759,9.088H696.09a101.232,101.232,0,0,1,5.446-34.08A78.741,78.741,0,0,1,716.862,23,67.466,67.466,0,0,1,740.3,5.963,73.082,73.082,0,0,1,770.061,0a75.626,75.626,0,0,1,29.513,5.678,69.666,69.666,0,0,1,23.433,15.905A73.459,73.459,0,0,1,838.46,45.865a82.153,82.153,0,0,1,5.573,30.53,78.314,78.314,0,0,1-6.713,32.518q-6.715,14.909-21.407,30.53l-31.666,33.229H846.06Z" transform="translate(53.999 0)" fill="#383635"/>
    </g>
  </g>
  <path id="Union_4" data-name="Union 4" d="M-6579.966,162.168c-1.265,0-49.927.1-50.076,0s-118.237-64.737-254.834-58.659L-6900,1.067s163.59-15.27,320.035,69.754C-6423.52-14.2-6259.93,1.067-6259.93,1.067l-15.125,102.442c-136.6-6.078-254.682,58.553-254.834,58.659-.05.035-5.634.047-13.056.047C-6557.5,162.215-6579.128,162.169-6579.966,162.168Z" transform="translate(7029.931 298.661)" fill="#383635"/>
  <path id="Union_7" data-name="Union 7" d="M-6579.966,162.168c-1.265,0-49.927.1-50.076,0s-118.237-64.737-254.834-58.659L-6900,1.067s163.59-15.27,320.035,69.754C-6423.52-14.2-6259.93,1.067-6259.93,1.067l-15.125,102.442c-136.6-6.078-254.682,58.553-254.834,58.659-.05.035-5.634.047-13.056.047C-6557.5,162.215-6579.128,162.169-6579.966,162.168Z" transform="translate(7029.966 443.66)" fill="#529dcd"/>
</svg>
