<?xml version="1.0" encoding="UTF-8"?>
<svg id="Layer_1" data-name="Layer 1" xmlns="http://www.w3.org/2000/svg" width="44.73" height="80" viewBox="0 0 44.73 80">
  <path d="M30.03,79.16c.02,.38,.03,.71-.41,.78-.42,.06-.64-.19-.76-.53-.33-.89-.63-1.79-.43-2.78,.1-.51,.09-1.02-.22-1.49-.2-.3-.21-.67-.23-1.03-.04-.97,.1-1.93,.18-2.89,.14-1.74-.07-3.48-.81-5.06-.83-1.79-1.2-3.6-.9-5.54,.2-1.29-.11-2.5-.49-3.7-.48-1.52-.71-3.07-.77-4.66-.02-.63-.29-1.19-.48-1.77-.65-1.98-.93-4.01-.98-6.09,0-.22,.04-.46-.21-.6-.32-.19-.77,.06-.78,.53-.02,1.43-.17,2.86-.45,4.27-.11,.54-.21,1.08-.43,1.59-.58,1.36-.72,2.8-.85,4.25-.09,.97-.29,1.92-.65,2.82-.52,1.31-.51,2.67-.37,4.01,.16,1.56-.1,3.01-.74,4.42-.97,2.14-1.25,4.37-.9,6.71,.15,1.01,.18,2.06-.29,3.04-.21,.42-.11,.85-.01,1.28,.21,.97-.06,1.88-.38,2.78-.08,.23-.23,.43-.51,.47-.46,.08-.67-.17-.66-.78-.37,.63-.49,.64-1.23,.3-.3-.14-.64-.23-.96-.25-.36-.03-.62-.25-.9-.39-.27-.14-.21-.5-.14-.79,.17-.65,.49-1.23,.86-1.78,.44-.68,.79-1.4,1.14-2.13,.4-.84,.26-1.74,.41-2.61,.23-1.28-.01-2.54-.13-3.8-.1-1.11-.2-2.21-.26-3.32-.08-1.45-.14-2.89,.09-4.34,.15-.93,.37-1.83,.72-2.71,.22-.55,.26-1.1,.17-1.7-.39-2.61-.72-5.23-.9-7.87-.22-3.22,.3-6.33,1.17-9.4,.41-1.45,.73-2.95,.64-4.43-.09-1.62,.41-3.16,.35-4.76-.02-.53-.11-1.03-.35-1.49-1.18-2.29-1.54-4.73-1.32-7.27,0-.04-.02-.09-.05-.21-.43,.46-.7,.97-.88,1.5-.24,.69-.59,1.33-.91,1.97-.95,1.86-1.77,3.8-2.8,5.62-.8,1.41-1.87,2.63-2.9,3.87-.88,1.07-1.83,2.08-2.74,3.13-.57,.67-1.06,1.39-1.07,2.32,0,.06-.01,.13-.04,.19-.52,1.33-.87,2.73-1.53,4.01-.05,.1-.11,.21-.2,.27-.25,.17-.4,.34-.17,.65,.1,.14,.05,.36-.17,.34-.31-.03-.26,.13-.23,.32,.03,.17,.06,.35,.08,.53,.02,.21-.36,.76-.56,.78-.2,.02-.22-.17-.26-.3-.13-.48-.25-.97-.38-1.45-.03-.12-.02-.26-.16-.34-.16,.14-.11,.33-.12,.5-.01,.19-.03,.39-.14,.56-.09,.14-.21,.26-.39,.22-.17-.03-.22-.18-.24-.33-.09-.56,.07-1.07,.23-1.61,.58-1.89,1.54-3.61,2.32-5.41,.71-1.64,1.6-3.2,2.25-4.88,.38-.99,.69-2.01,1.14-2.98,.49-1.07,1.05-2.1,1.89-2.96,.47-.48,.82-1.03,.99-1.69,.45-1.73,1.12-3.36,2.13-4.85,.31-.46,.5-.98,.65-1.5,.35-1.23,1.07-2.23,1.94-3.14,.51-.54,1.2-.77,1.92-.83,.67-.05,1.3-.25,1.95-.34,.14-.02,.29-.07,.41-.15,1.37-.85,2.72-1.72,3.03-3.48,.11-.6,.03-1.19-.23-1.75-.14-.31-.26-.62-.29-.97-.01-.11-.03-.23-.1-.31-.75-.95-.86-1.96-.45-3.1,.18-.51,.18-1.08,.27-1.62,.23-1.37,.89-2.42,2.27-2.88,1.67-.56,3.51,.4,4.01,2.08,.15,.51,.26,1.03,.31,1.56,.04,.38,.01,.77,.29,1.1,.07,.08,.09,.24,.08,.37-.03,.7-.03,1.43-.38,2.03-.33,.57-.45,1.18-.68,1.77-.51,1.3-.11,3.02,.97,3.93,.7,.59,1.35,1.25,2.26,1.55,.46,.15,.93,.27,1.41,.3,1.07,.06,1.9,.52,2.52,1.41,.54,.78,.93,1.61,1.17,2.53,.31,1.19,1.04,2.18,1.64,3.22,.42,.75,.78,1.52,1.06,2.33,.27,.78,.68,1.46,1.28,2.02,1.65,1.51,2.38,3.48,2.79,5.61,.21,1.07,.52,2.11,1.03,3.06,.69,1.3,1.19,2.68,1.76,4.03,.31,.74,.57,1.47,.62,2.26,.05,.83,.05,1.66,.25,2.48,0,.03,0,.06,0,.1-.04,.23,0,.54-.28,.62-.32,.09-.37-.23-.53-.47-.06,.24-.11,.44-.17,.64-.03,.11-.09,.23-.22,.23-.14,0-.15-.14-.19-.24-.1-.33-.07-.66-.02-1,.15-.97-.05-1.83-.8-2.51-.1-.09-.2-.25-.37-.16-.13,.07-.13,.22-.12,.35,0,.26,.04,.51,.05,.77,.01,.18,.04,.35,.02,.53-.01,.16-.07,.33-.25,.37-.19,.04-.29-.11-.37-.26-.19-.37-.37-.76-.45-1.17-.3-1.48-.56-2.97-.52-4.5,.02-.69-.39-1.29-.8-1.83-1.22-1.64-2.59-3.17-3.73-4.88-.99-1.48-1.81-3.05-2.68-4.59-.78-1.37-1.4-2.83-2-4.29-.14-.33-.24-.67-.36-1-.07-.19-.12-.4-.33-.51-.17,.2-.04,.39-.03,.57,.11,2.36,0,4.69-1.13,6.84-.65,1.24-.58,2.53-.35,3.82,.11,.65,.17,1.3,.18,1.96,.01,1.97,.29,3.92,.84,5.82,.71,2.46,1.14,4.96,1.06,7.54-.07,2.2-.31,4.37-.7,6.53-.17,.95-.28,1.91-.42,2.87-.07,.45,.08,.87,.23,1.27,.59,1.61,.94,3.27,.88,4.97-.07,2.14-.12,4.28-.44,6.41-.23,1.53-.09,3.06,.12,4.57,.13,.98,.67,1.84,1.2,2.67,.44,.68,.88,1.35,1.15,2.12,.2,.57,.1,.7-.41,1.01-.45,.27-.92,.34-1.4,.45-.06,.01-.12,.03-.17,.07-.59,.38-.74,.35-1.19-.29Z"/>
</svg>